<svg width="114" height="114" xmlns:xlink="http://www.w3.org/1999/xlink" xmlns="http://www.w3.org/2000/svg"><defs><radialGradient r="41.92" fy="811.17" fx="-84.97" cy="811.17" cx="-84.97" gradientTransform="matrix(1.20484 0 0 1.17603 214.36 11.18)" gradientUnits="userSpaceOnUse" id="c" xlink:href="#a"/><linearGradient id="a"><stop style="stop-color:#bb7414;stop-opacity:1" offset="0"/><stop offset=".5" style="stop-color:#fdfbf8;stop-opacity:1"/><stop style="stop-color:#eb8904;stop-opacity:1" offset="1"/></linearGradient><filter style="color-interpolation-filters:sRGB" id="b" x="-.07" width="1.14" y="-.07" height="1.15"><feGaussianBlur stdDeviation="2.95"/></filter></defs><path d="M114.57 918.3c.23 1.52-7.51 2.2-20.1 8.89-4.22 2.25-9.22 5.44-13.19 9.85-3 3.31-5.56 7.5-7.12 12.32-1.57 4.78-2.15 10.08-2.06 15.84a42.8 42.8 0 0 0 12.6 29.33 42.4 42.4 0 0 0 29.33 12.02 42.42 42.42 0 0 0 29.35-12 42.85 42.85 0 0 0 12.64-29.35 36.57 36.57 0 0 0-12-27.7c-7.6-6.87-16.8-9.69-22.13-11-5.8-1.42-8.9-1.62-8.94-2.27-.02-.4 3.05-1.33 9.34-.87a48.22 48.22 0 0 1 25.49 9.59 42.1 42.1 0 0 1 15.92 32.25c.1 6.12-1 12.48-3.35 18.57s6.55 24.15 1.64 29.15c-4.54 4.6-22.54-3.95-28.58-1.39a50.02 50.02 0 0 1-19.38 3.98 50.37 50.37 0 0 1-35.48-14.83A49.97 49.97 0 0 1 64.3 965.2a53.8 53.8 0 0 1 3.18-18.2 39.25 39.25 0 0 1 9.36-14.28 49.32 49.32 0 0 1 15.6-9.87c14.08-5.75 22.1-4.68 22.13-4.55z" style="opacity:.887;fill:#000;fill-opacity:1;stroke:none;stroke-opacity:1;filter:url(#b)" transform="translate(-57.2 -911.05)"/><path style="fill:url(#c);fill-opacity:1;stroke:none;stroke-opacity:1" d="M112.57 916.3c.23 1.52-7.51 2.2-20.1 8.89-4.22 2.25-9.22 5.44-13.19 9.85-3 3.31-5.56 7.5-7.12 12.32-1.57 4.78-2.15 10.08-2.06 15.84a42.8 42.8 0 0 0 12.6 29.33 42.4 42.4 0 0 0 29.33 12.02 42.42 42.42 0 0 0 29.35-12 42.85 42.85 0 0 0 12.64-29.35 36.57 36.57 0 0 0-12-27.7c-7.6-6.87-16.8-9.69-22.13-11-5.8-1.42-8.9-1.62-8.94-2.27-.02-.4 3.05-1.33 9.34-.87a48.22 48.22 0 0 1 25.49 9.59 42.1 42.1 0 0 1 15.92 32.25c.1 6.12-1 12.48-3.35 18.57s6.55 24.15 1.64 29.15c-4.54 4.6-22.54-3.95-28.58-1.39a50.02 50.02 0 0 1-19.38 3.98 50.37 50.37 0 0 1-35.48-14.83A49.97 49.97 0 0 1 62.3 963.2a53.8 53.8 0 0 1 3.18-18.2 39.25 39.25 0 0 1 9.36-14.28 49.32 49.32 0 0 1 15.6-9.87c14.08-5.75 22.1-4.68 22.13-4.55z" transform="translate(-57.2 -911.05)"/></svg>